<?xml version="1.0" encoding="UTF-8" standalone="no"?>
<!-- Created with Inkscape (http://www.inkscape.org/) -->

<svg
   xmlns:dc="http://purl.org/dc/elements/1.1/"
   xmlns:cc="http://creativecommons.org/ns#"
   xmlns:rdf="http://www.w3.org/1999/02/22-rdf-syntax-ns#"
   xmlns:svg="http://www.w3.org/2000/svg"
   xmlns="http://www.w3.org/2000/svg"
   xmlns:sodipodi="http://sodipodi.sourceforge.net/DTD/sodipodi-0.dtd"
   xmlns:inkscape="http://www.inkscape.org/namespaces/inkscape"
   width="793.70081"
   height="1122.5197"
   id="svg2"
   version="1.1"
   inkscape:version="0.92.3 (2405546, 2018-03-11)"
   sodipodi:docname="alignments2.svg">
  <defs
     id="defs4" />
  <sodipodi:namedview
     id="base"
     pagecolor="#ffffff"
     bordercolor="#666666"
     borderopacity="1.0"
     inkscape:pageopacity="0.0"
     inkscape:pageshadow="2"
     inkscape:zoom="0.49497475"
     inkscape:cx="530.04004"
     inkscape:cy="149.6601"
     inkscape:document-units="px"
     inkscape:current-layer="layer1"
     showgrid="false"
     showguides="true"
     inkscape:guide-bbox="true"
     inkscape:snap-global="true"
     inkscape:window-width="1918"
     inkscape:window-height="1153"
     inkscape:window-x="1"
     inkscape:window-y="1"
     inkscape:window-maximized="1">
    <sodipodi:guide
       orientation="1,0"
       position="106.66667,743.61905"
       id="guide2985"
       inkscape:locked="false" />
    <sodipodi:guide
       orientation="1,0"
       position="213.33333,729.90476"
       id="guide2987"
       inkscape:locked="false" />
    <sodipodi:guide
       orientation="1,0"
       position="320,694.85714"
       id="guide2989"
       inkscape:locked="false" />
    <sodipodi:guide
       orientation="1,0"
       position="96,643.04762"
       id="guide2991"
       inkscape:locked="false" />
    <sodipodi:guide
       orientation="1,0"
       position="202.66667,812.19047"
       id="guide2993"
       inkscape:locked="false" />
    <sodipodi:guide
       orientation="1,0"
       position="-20.472425,476.25326"
       id="guide2995"
       inkscape:locked="false" />
    <sodipodi:guide
       orientation="1,0"
       position="309.33333,854.85714"
       id="guide2997"
       inkscape:locked="false" />
    <sodipodi:guide
       orientation="1,0"
       position="416,958.47619"
       id="guide2999"
       inkscape:locked="false" />
    <sodipodi:guide
       orientation="0,1"
       position="-20.472425,-22.627417"
       id="guide3001"
       inkscape:locked="false" />
    <sodipodi:guide
       orientation="0,1"
       position="258.59905,95.897149"
       id="guide3003"
       inkscape:locked="false" />
    <sodipodi:guide
       orientation="0,1"
       position="193.94929,105.59461"
       id="guide3005"
       inkscape:locked="false" />
    <sodipodi:guide
       orientation="0,1"
       position="293.07892,202.56926"
       id="guide3007"
       inkscape:locked="false" />
    <sodipodi:guide
       orientation="0,1"
       position="176.70935,320.01633"
       id="guide3011"
       inkscape:locked="false" />
    <sodipodi:guide
       orientation="0,1"
       position="178.86434,309.24137"
       id="guide3013"
       inkscape:locked="false" />
    <sodipodi:guide
       orientation="0,1"
       position="163.7794,415.91347"
       id="guide3015"
       inkscape:locked="false" />
    <sodipodi:guide
       orientation="0,1"
       position="161.62441,368.50365"
       id="guide3101"
       inkscape:locked="false" />
    <sodipodi:guide
       orientation="0,1"
       position="141.15198,261.83154"
       id="guide3103"
       inkscape:locked="false" />
    <sodipodi:guide
       orientation="0,1"
       position="-20.472425,153.00444"
       id="guide3105"
       inkscape:locked="false" />
    <sodipodi:guide
       orientation="1,0"
       position="47.409826,455.78083"
       id="guide3107"
       inkscape:locked="false" />
    <sodipodi:guide
       orientation="1,0"
       position="154.08193,459.01331"
       id="guide3109"
       inkscape:locked="false" />
    <sodipodi:guide
       orientation="1,0"
       position="261.83154,469.78828"
       id="guide3111"
       inkscape:locked="false" />
    <sodipodi:guide
       orientation="1,0"
       position="368.50365,496.72567"
       id="guide3113"
       inkscape:locked="false" />
    <inkscape:grid
       type="xygrid"
       id="grid4223"
       originx="0"
       originy="0"
       spacingx="1.0666667"
       spacingy="1.0666667" />
  </sodipodi:namedview>
  <metadata
     id="metadata7">
    <rdf:RDF>
      <cc:Work
         rdf:about="">
        <dc:format>image/svg+xml</dc:format>
        <dc:type
           rdf:resource="http://purl.org/dc/dcmitype/StillImage" />
        <dc:title></dc:title>
      </cc:Work>
    </rdf:RDF>
  </metadata>
  <g
     inkscape:label="Layer 1"
     inkscape:groupmode="layer"
     id="layer1">
    <path
       id="path3051-9"
       style="fill:none;stroke:#000000;stroke-width:2.98666668;stroke-miterlimit:4;stroke-opacity:1"
       d="m 139.72689,1042.7898 v 21.5499 h 31.11269 v -21.5499 z m -8.68731,21.6846 v 22.4927 h 48.48732 v -22.4927 z m 11.24636,22.8968 v 18.4522 h 25.99459 v -18.4522 z m -72.394303,-0.4407 v 18.4521 h 25.994667 v -18.4521 z m -22.492693,-22.8968 v 22.4927 h 48.48736 v -22.4927 z m 17.374613,-21.6846 v 21.5499 h 31.112747 v -21.5499 z m 174.554373,44.4466 v 18.4522 h -25.9946 v -18.4522 z m 22.49271,-22.8967 v 22.4927 h -48.48732 v -22.4927 z m -17.37461,-21.6846 v 21.5499 h -31.1127 v -21.5499 z m -89.29749,64.9673 v 15.4408 m 0,-96 v 17.391 m -59.262236,-17.391 v 96 m 117.447026,-96 v 96 M 336.1673,876.10977 h 21.54992 V 844.99708 H 336.1673 Z m 21.68459,8.68731 h 22.49274 v -48.48732 h -22.49274 z m 22.89678,-11.24636 h 18.45212 v -25.99459 h -18.45212 z m -0.44076,72.39427 h 18.45212 V 919.9504 h -18.45212 z m -22.89677,22.49272 h 22.49273 v -48.48732 h -22.49273 z m -21.6846,-17.37462 h 21.54992 V 919.9504 h -21.54992 z m 44.44669,-174.55435 h 18.45211 v 25.99459 h -18.45211 z m -22.89678,-22.49272 h 22.49273 v 48.48732 h -22.49273 z m -21.6846,17.37461 h 21.54992 v 31.1127 H 335.59185 Z M 213.33333,919.95039 h 38.78986 v 38.25111 h -38.78986 z m -78.64632,0 h 38.78985 v 38.25111 h -38.78985 z m -77.476862,0 H 96.000004 V 958.2015 H 57.210148 Z m -8e-6,-78.38789 h 38.789856 v 38.25111 H 57.21014 Z m 77.47687,0.2694 h 38.78985 v 38.25111 h -38.78985 z m 78.64632,-0.40404 h 38.78986 v 38.25112 h -38.78986 z m 0,-77.17565 h 38.78986 v 38.25112 h -38.78986 z m -79.31975,0 h 38.78985 v 38.25112 h -38.78985 z m -76.906288,0 h 38.789856 v 38.25112 H 57.107292 Z m 252.205398,96.43586 h -57.88602 m -38.01113,-47.41525 v 96 m 95.91779,10.67758 h -96 v 96.7188 m 96,-214.16587 h -96 V 706.22521 M 400.55916,860.68812 H 416 m -96,0 h 17.39094 M 320,919.9504 h 96 M 320,802.50333 h 96 m -8.61996,271.61547 c 0,20.8759 -16.92314,37.799 -37.79889,37.799 -20.87575,0 -37.79889,-16.9231 -37.79889,-37.799 0,-20.8757 16.92314,-37.7988 37.79889,-37.7988 20.87575,0 37.79889,16.9231 37.79889,37.7988 z M 134.53788,860.68812 h -27.87121 m 66.97571,0.0674 29.02429,-0.0674 m -48.58474,19.39493 v 30.16989 m 0,-96.97465 v 28.9452 m 0,174.70151 0.10016,-57.37662 M 106.66667,919.9504 h 96 M -1.0774912,860.68812 H 56.808534 M 96,813.27285 v 96 m 58.08193,-202.66666 v 56.56854 m -47.41526,39.3286 h 96 M 2.0466987,919.9504 H 96 v 98.0521 M 2.0466982,802.50333 H 96 v -95.89714"
       inkscape:connector-curvature="0" />
  </g>
</svg>
